<svg id="Слой_1" data-name="Слой 1" xmlns="http://www.w3.org/2000/svg" viewBox="0 0 269.71 104.28"><title>чайка</title><path d="M217.84,268.85c12.91-5.5,25.1-6.67,39-6.33L254.22,258c-10.47,17.46-20.31,35.68-24.42,55.81-.56,2.73,2,4.44,4.41,3.39,16.49-7.18,30.82-20,48.34-24.79L279.16,288c-5.82,11.07-12.18,21.89-17.44,33.24A157.25,157.25,0,0,0,250.47,356a3,3,0,0,0,5,2.92c16.19-15.43,32.12-30.69,54-37.4l-2.31-5.48a45.58,45.58,0,0,0-21.25,40.6c.13,2.8,3.1,3.7,5.12,2.12l26.59-20.71L312.53,336l-1.09,21.71a3,3,0,0,0,4.51,2.59l22.89-13.85c3.3-2,.29-7.19-3-5.18l-22.89,13.85,4.51,2.59L318.53,336c.14-2.88-3.25-3.58-5.12-2.12l-26.59,20.71,5.12,2.12a39.51,39.51,0,0,1,18.28-35.41c2.79-1.76,1-6.51-2.31-5.48-22.93,7-39.69,22.76-56.66,38.95l5,2.92A151.4,151.4,0,0,1,267.48,323c5.15-10.9,11.25-21.33,16.86-32a3,3,0,0,0-3.39-4.41c-18.07,4.91-32.79,18-49.78,25.4l4.41,3.39c4-19.65,13.59-37.33,23.82-54.37a3,3,0,0,0-2.59-4.51c-6.77-.17-13.54-.36-20.26.58-7.59,1.06-14.71,3.58-21.74,6.57-3.54,1.51-.49,6.68,3,5.18Z" transform="translate(-213.23 -256.38)"/><path d="M345.2,319a84.53,84.53,0,0,0-9.54,37.68c0,2.13,2.63,3.93,4.51,2.59l31.46-22.34-4.1-4.1a38,38,0,0,0-6.38,24c.14,2.07,2.51,4,4.51,2.59,9.09-6.43,18.28-12.69,27.37-19.12,3.13-2.21.13-7.42-3-5.18-9.09,6.43-18.28,12.69-27.37,19.12l4.51,2.59a32.64,32.64,0,0,1,5.56-21c1.62-2.43-1.66-5.84-4.1-4.1l-31.46,22.34,4.51,2.59A77.69,77.69,0,0,1,350.38,322c1.77-3.42-3.4-6.46-5.18-3Z" transform="translate(-213.23 -256.38)"/><path d="M394.23,318.58l-10.52,37.66c-1,3.72,4.75,5.31,5.79,1.6L400,320.17c1-3.72-4.75-5.31-5.79-1.6Z" transform="translate(-213.23 -256.38)"/><path d="M433.73,358.79l26.59-20.71L455.2,336,454.15,357a3,3,0,0,0,4.51,2.59c7.55-4.53,15.31-8.69,22.85-13.22,3.31-2,.29-7.17-3-5.18-7.55,4.53-15.31,8.69-22.85,13.22l4.51,2.59L461.2,336c.14-2.88-3.25-3.58-5.12-2.12l-26.59,20.71c-3,2.37,1.23,6.59,4.24,4.24Z" transform="translate(-213.23 -256.38)"/><path d="M388.72,359.15c17.9-16.83,40-28.75,63.45-35.84l-2.31-5.48c-13.56,8.49-22.8,22.66-22,39,.18,3.84,6.18,3.87,6,0-.66-14.25,7.23-26.41,19.07-33.82,2.81-1.76,1-6.5-2.31-5.48-24.44,7.39-47.44,19.85-66.1,37.38-2.82,2.65,1.43,6.89,4.24,4.24Z" transform="translate(-213.23 -256.38)"/><path d="M401.43,347.76l7.28,10.91c2.13,3.2,7.33.2,5.18-3l-7.28-10.91c-2.13-3.2-7.33-.2-5.18,3Z" transform="translate(-213.23 -256.38)"/><path d="M363.65,317.53h6.89c3.86,0,3.87-6,0-6h-6.89c-3.86,0-3.87,6,0,6Z" transform="translate(-213.23 -256.38)"/></svg>
