<svg id="Слой_1" data-name="Слой 1" xmlns="http://www.w3.org/2000/svg" viewBox="0 0 440.94 104.75"><defs><style>.cls-1{font-size:32.19px;font-family:NeoSansPro-Bold, Neo Sans Pro;font-weight:700;letter-spacing:0.05em;}.cls-1,.cls-5{fill:#009ce6;}.cls-2{letter-spacing:-0.03em;}.cls-3{letter-spacing:-0.01em;}.cls-4{letter-spacing:0.05em;}.cls-6{fill:#ff7100;}.cls-7{fill:#0081ba;}.cls-8{font-size:28.27px;fill:#333;font-family:NeoSansPro-Regular, Neo Sans Pro;letter-spacing:0.02em;}.cls-9{letter-spacing:0.05em;}</style></defs><title>main-logo</title><text class="cls-1" x="-120.47" y="-137.91"><tspan x="142.03" y="83.79">Ш</tspan><tspan class="cls-2" x="175.41" y="83.79">Т</tspan><tspan x="193.49" y="83.79">АБ-КВАРТИ</tspan><tspan class="cls-3" x="388.95" y="83.79">Р</tspan><tspan class="cls-4" x="409.71" y="83.79">А</tspan></text><path class="cls-5" d="M209.58,233.35l24.13-10.79a3.11,3.11,0,0,0,1.84-2.84V161.53l-26,13.77Z" transform="translate(-120.47 -137.91)"/><path class="cls-5" d="M205.59,146.66l-23.16,12.12L208,172.25l25.19-13.48L210,146.66A4.79,4.79,0,0,0,205.59,146.66Zm2.22,20.83-17.11-8.61,17.11-9.32Z" transform="translate(-120.47 -137.91)"/><path class="cls-5" d="M155.43,242.65l29.15-13a3.43,3.43,0,0,0,2-3.13v-70L155.43,173Z" transform="translate(-120.47 -137.91)"/><path class="cls-6" d="M120.47,156.45v72.27l31.17,13.93V173Zm13.95,54.65-9-4.61v-5.67l9,4.53Zm0-11.17-9-4.61v-5.67l9,4.53Zm0-11.17-9-4.61v-5.67l9,4.53Zm0-11.17-9-4.61v-5.67l9,4.53Zm12.09,39.71-10.08-5.17v-5.76l10.08,5.08Zm0-11.17L136.43,201V195.2l10.08,5.08Zm0-11.17-10.08-5.17V184l10.08,5.08Zm0-11.17-10.08-5.17v-5.76l10.08,5.08Z" transform="translate(-120.47 -137.91)"/><path class="cls-6" d="M150.54,138.52,122.6,153.15l30.7,16.18,30.23-16.18-27.94-14.62A5.44,5.44,0,0,0,150.54,138.52Zm2.52,25.07-20.54-10.33,20.54-11.19Z" transform="translate(-120.47 -137.91)"/><path class="cls-6" d="M190.29,167.09v6.7l4.36,2.2v4.81l-4.36-2.23v4.18l4.36,2.2v4.81l-4.36-2.23v4.18l4.36,2.2v4.81l-4.36-2.23v4.18l4.36,2.2v4.81l-4.36-2.23v21l15.76,7v-58Zm11.48,44.22-5.45-2.79v-4.82l5.45,2.75Zm0-9-5.45-2.79v-4.82l5.45,2.75Zm0-9-5.45-2.79v-4.82l5.45,2.75Zm0-9-5.45-2.79v-4.82l5.45,2.75Z" transform="translate(-120.47 -137.91)"/><polygon class="cls-7" points="34.95 35.08 63.29 92.08 34.95 104.75 34.95 35.08"/><path class="cls-7" d="M209.58,175.26l23.85,42.67a4,4,0,0,1-1.85,5.58l-22,9.83Z" transform="translate(-120.47 -137.91)"/><text class="cls-8" transform="translate(142.03 41.54)">Ц<tspan class="cls-9" x="20.1" y="0">ЕНТР НОВОСТРОЕК </tspan></text></svg>
