<svg id="Слой_1" data-name="Слой 1" xmlns="http://www.w3.org/2000/svg" viewBox="0 0 430.63 104.75"><defs><style>.cls-1{fill:#009ce6;}.cls-2{fill:#ff7100;}.cls-3{fill:#0081ba;}.cls-4{fill:#333;}</style></defs><title>main-logo</title><path class="cls-1" d="M281.14,216.9h4a2.29,2.29,0,0,0,.8-.11.88.88,0,0,0,.43-.34,1.07,1.07,0,0,0,.16-.53q0-.31,0-.66V198.39a.66.66,0,0,1,.64-.64h4.22a.66.66,0,0,1,.64.64v16.87a11.16,11.16,0,0,1-.27,2.53,4.77,4.77,0,0,1-1,2,4.93,4.93,0,0,1-2.06,1.37,9.79,9.79,0,0,1-3.41.5H271.51a9.78,9.78,0,0,1-3.41-.5,4.92,4.92,0,0,1-2.06-1.37,4.77,4.77,0,0,1-1-2,11.1,11.1,0,0,1-.27-2.53V198.39a.66.66,0,0,1,.64-.64h4.22a.66.66,0,0,1,.64.64v16.86q0,.35,0,.66a1.07,1.07,0,0,0,.16.53.88.88,0,0,0,.42.34,2.26,2.26,0,0,0,.82.11h4V198.39a.66.66,0,0,1,.64-.64h4.22a.66.66,0,0,1,.64.64Z" transform="translate(-120.47 -137.91)"/><path class="cls-1" d="M313.76,202.14a.7.7,0,0,1-.47.18h-5.21V221a.66.66,0,0,1-.64.64h-4.22a.66.66,0,0,1-.64-.64V202.32h-5.25a.64.64,0,0,1-.45-.18.56.56,0,0,1-.19-.43v-3.32a.57.57,0,0,1,.19-.43.65.65,0,0,1,.45-.18h16a.71.71,0,0,1,.47.18.55.55,0,0,1,.21.43v3.32A.55.55,0,0,1,313.76,202.14Z" transform="translate(-120.47 -137.91)"/><path class="cls-1" d="M334.89,221.18q0,.52-.55.52h-4.51a.56.56,0,0,1-.42-.16.87.87,0,0,1-.23-.42L328,215.83h-6.6l-1.16,5.28a.88.88,0,0,1-.23.42.56.56,0,0,1-.42.16h-4.51q-.55,0-.55-.52a.13.13,0,0,1,0-.06.24.24,0,0,0,0-.1l4.8-20a5,5,0,0,1,.84-1.87,3.77,3.77,0,0,1,1.27-1.08,5.11,5.11,0,0,1,1.56-.5,11,11,0,0,1,1.67-.13,10.72,10.72,0,0,1,1.66.13,5.12,5.12,0,0,1,1.54.5,3.79,3.79,0,0,1,1.27,1.08,5,5,0,0,1,.84,1.87l4.8,20a.23.23,0,0,0,0,.1A.14.14,0,0,1,334.89,221.18Zm-9.72-18.64a1.58,1.58,0,0,0-.13-.37c0-.07-.14-.11-.29-.11s-.39.16-.45.48l-2,8.88h4.8Z" transform="translate(-120.47 -137.91)"/><path class="cls-1" d="M339.36,198.42a.62.62,0,0,1,.19-.45.62.62,0,0,1,.45-.19h13.48a.71.71,0,0,1,.47.18.55.55,0,0,1,.21.43v3.32a.55.55,0,0,1-.21.43.7.7,0,0,1-.47.18h-8.62V207l1.09,0,1.09,0a24.09,24.09,0,0,1,3.93.31,9,9,0,0,1,3.21,1.13,6,6,0,0,1,2.17,2.25,7.41,7.41,0,0,1,.8,3.65v.23a7.49,7.49,0,0,1-.8,3.67,6.22,6.22,0,0,1-2.17,2.3,8.89,8.89,0,0,1-3.22,1.17A23,23,0,0,1,347,222q-.8,0-1.64,0l-1.62-.08-1.46-.11q-.68-.07-1.16-.16a2.43,2.43,0,0,1-1.37-.58,2.18,2.18,0,0,1-.4-1.51Zm7.39,19.05a16.31,16.31,0,0,0,2.53-.16,4,4,0,0,0,1.55-.53,1.89,1.89,0,0,0,.77-.93,3.83,3.83,0,0,0,.21-1.34v-.23a3.7,3.7,0,0,0-.21-1.32,1.75,1.75,0,0,0-.77-.89,4.22,4.22,0,0,0-1.55-.48,18.08,18.08,0,0,0-2.53-.15H346l-.46,0-.3,0h-.32v6h.32l.3,0,.46,0Z" transform="translate(-120.47 -137.91)"/><path class="cls-1" d="M368.68,213.61a.68.68,0,0,1-.45.16H362a.68.68,0,0,1-.45-.16.52.52,0,0,1-.19-.42v-2.57a.57.57,0,0,1,.19-.43A.65.65,0,0,1,362,210h6.24a.65.65,0,0,1,.45.18.57.57,0,0,1,.19.43v2.57A.52.52,0,0,1,368.68,213.61Z" transform="translate(-120.47 -137.91)"/><path class="cls-1" d="M392.56,198.13a.89.89,0,0,1-.16.45l-7.66,10.88L392.43,221a.56.56,0,0,1,.13.35q0,.32-.45.32h-5.54a.64.64,0,0,1-.43-.13,1.64,1.64,0,0,1-.27-.32l-6.53-10.62V221a.66.66,0,0,1-.64.64h-4.22a.66.66,0,0,1-.64-.64V198.39A.57.57,0,0,1,374,198a.65.65,0,0,1,.45-.18h4.22a.65.65,0,0,1,.45.18.57.57,0,0,1,.19.43v10.23l7.08-10.46a.76.76,0,0,1,.71-.39H392Q392.56,197.78,392.56,198.13Z" transform="translate(-120.47 -137.91)"/><path class="cls-1" d="M415.09,214.77a7,7,0,0,1-.81,3.52,6.07,6.07,0,0,1-2.18,2.22,9.31,9.31,0,0,1-3.22,1.14,23.1,23.1,0,0,1-3.95.32q-.81,0-1.64,0l-1.63-.08-1.47-.11q-.68-.07-1.16-.16a2.43,2.43,0,0,1-1.37-.58,2.18,2.18,0,0,1-.4-1.51V199.94a2.25,2.25,0,0,1,.39-1.51,2.3,2.3,0,0,1,1.32-.58l1.08-.13,1.45-.11,1.63-.08q.84,0,1.61,0a23.45,23.45,0,0,1,4.16.34,9.9,9.9,0,0,1,3.21,1.11,5.55,5.55,0,0,1,2.08,2.06,6.37,6.37,0,0,1,.74,3.22v.58a5.64,5.64,0,0,1-.71,2.83,4.63,4.63,0,0,1-2,1.9,5.13,5.13,0,0,1,2.88,4.76Zm-5.5-10.2a2.15,2.15,0,0,0-1-1.95,6.85,6.85,0,0,0-3.46-.63h-1.24l-.71,0-.5,0v5.57h3.6a5.12,5.12,0,0,0,1.59-.21,2.76,2.76,0,0,0,1-.55,1.92,1.92,0,0,0,.53-.8,3,3,0,0,0,.16-1Zm.13,9.72a3,3,0,0,0-.74-2,3.42,3.42,0,0,0-2.67-.85h-3.6v6h.56l.77,0,.77,0h.53a5.8,5.8,0,0,0,3.43-.74,2.5,2.5,0,0,0,1-2.09Z" transform="translate(-120.47 -137.91)"/><path class="cls-1" d="M439.07,221.18q0,.52-.55.52H434a.56.56,0,0,1-.42-.16.87.87,0,0,1-.23-.42l-1.16-5.28h-6.6l-1.16,5.28a.88.88,0,0,1-.23.42.56.56,0,0,1-.42.16h-4.51q-.55,0-.55-.52a.13.13,0,0,1,0-.06.24.24,0,0,0,0-.1l4.8-20a5,5,0,0,1,.84-1.87,3.77,3.77,0,0,1,1.27-1.08,5.11,5.11,0,0,1,1.56-.5,11,11,0,0,1,1.67-.13,10.72,10.72,0,0,1,1.66.13,5.12,5.12,0,0,1,1.54.5,3.79,3.79,0,0,1,1.27,1.08,5,5,0,0,1,.84,1.87l4.8,20a.23.23,0,0,0,0,.1A.14.14,0,0,1,439.07,221.18Zm-9.72-18.64a1.58,1.58,0,0,0-.13-.37c0-.07-.14-.11-.29-.11s-.39.16-.45.48l-2,8.88h4.8Z" transform="translate(-120.47 -137.91)"/><path class="cls-1" d="M461.21,205.54a7.71,7.71,0,0,1-.82,3.75,6.71,6.71,0,0,1-2.18,2.4,8.86,8.86,0,0,1-3.08,1.27,16.79,16.79,0,0,1-3.53.37l-1.29,0-1.32-.06V221a.66.66,0,0,1-.64.64h-4.15a.64.64,0,0,1-.45-.18.56.56,0,0,1-.19-.43V199.45a1.41,1.41,0,0,1,.35-1.13,2.39,2.39,0,0,1,1.1-.42q1.22-.19,3-.31t3.53-.11a17.92,17.92,0,0,1,3.58.35,8.65,8.65,0,0,1,3.1,1.25,6.71,6.71,0,0,1,2.18,2.4,7.72,7.72,0,0,1,.82,3.75Zm-5.5-.29a2.78,2.78,0,0,0-1-2.46,5.4,5.4,0,0,0-3.07-.72l-.55,0-.79,0-.77,0-.5,0v6.57l.5,0,.8,0,.8,0h.5a4.94,4.94,0,0,0,3.14-.8,3,3,0,0,0,1-2.45Z" transform="translate(-120.47 -137.91)"/><path class="cls-1" d="M481.73,202.14a.7.7,0,0,1-.47.18H476V221a.66.66,0,0,1-.64.64h-4.22a.66.66,0,0,1-.64-.64V202.32H465.3a.64.64,0,0,1-.45-.18.56.56,0,0,1-.19-.43v-3.32a.57.57,0,0,1,.19-.43.65.65,0,0,1,.45-.18h16a.71.71,0,0,1,.47.18.55.55,0,0,1,.21.43v3.32A.55.55,0,0,1,481.73,202.14Z" transform="translate(-120.47 -137.91)"/><path class="cls-1" d="M486.6,198.39a.57.57,0,0,1,.19-.43.65.65,0,0,1,.45-.18H491a.65.65,0,0,1,.45.18.57.57,0,0,1,.19.43V212q0,.29.16.29c.06,0,.15-.09.26-.26l7.63-13.26a2.73,2.73,0,0,1,.58-.76,1.17,1.17,0,0,1,.77-.24h3.25a1.21,1.21,0,0,1,1.22,1.22v22a.66.66,0,0,1-.64.64h-3.8a.66.66,0,0,1-.64-.64V208q0-.26-.16-.26T500,208l-7.34,12.68a2,2,0,0,1-.77.82,2.15,2.15,0,0,1-.9.18h-3.15a1.23,1.23,0,0,1-.88-.35,1.15,1.15,0,0,1-.37-.87Z" transform="translate(-120.47 -137.91)"/><path class="cls-1" d="M529.35,205.54a7.71,7.71,0,0,1-.82,3.75,6.71,6.71,0,0,1-2.18,2.4,8.86,8.86,0,0,1-3.08,1.27,16.79,16.79,0,0,1-3.53.37l-1.29,0-1.32-.06V221a.66.66,0,0,1-.64.64h-4.15a.64.64,0,0,1-.45-.18.56.56,0,0,1-.19-.43V199.45a1.41,1.41,0,0,1,.35-1.13,2.39,2.39,0,0,1,1.1-.42q1.22-.19,3-.31t3.53-.11a17.92,17.92,0,0,1,3.58.35,8.65,8.65,0,0,1,3.1,1.25,6.71,6.71,0,0,1,2.18,2.4,7.72,7.72,0,0,1,.82,3.75Zm-5.5-.29a2.78,2.78,0,0,0-1-2.46,5.4,5.4,0,0,0-3.07-.72l-.55,0-.79,0-.77,0-.5,0v6.57l.5,0,.8,0,.8,0h.5a4.94,4.94,0,0,0,3.14-.8,3,3,0,0,0,1-2.45Z" transform="translate(-120.47 -137.91)"/><path class="cls-1" d="M551.1,221.18q0,.52-.55.52h-4.51a.56.56,0,0,1-.42-.16.87.87,0,0,1-.23-.42l-1.16-5.28h-6.6l-1.16,5.28a.88.88,0,0,1-.23.42.56.56,0,0,1-.42.16h-4.51q-.55,0-.55-.52a.13.13,0,0,1,0-.06.24.24,0,0,0,0-.1l4.8-20a5,5,0,0,1,.84-1.87,3.77,3.77,0,0,1,1.27-1.08,5.11,5.11,0,0,1,1.56-.5,11,11,0,0,1,1.67-.13,10.72,10.72,0,0,1,1.66.13,5.12,5.12,0,0,1,1.54.5,3.79,3.79,0,0,1,1.27,1.08,5,5,0,0,1,.84,1.87l4.8,20a.23.23,0,0,0,0,.1A.14.14,0,0,1,551.1,221.18Zm-9.72-18.64a1.58,1.58,0,0,0-.13-.37c0-.07-.14-.11-.29-.11s-.39.16-.45.48l-2,8.88h4.8Z" transform="translate(-120.47 -137.91)"/><path class="cls-1" d="M209.58,233.35l24.13-10.79a3.11,3.11,0,0,0,1.84-2.84V161.53l-26,13.77Z" transform="translate(-120.47 -137.91)"/><path class="cls-1" d="M205.59,146.66l-23.16,12.12L208,172.25l25.19-13.48L210,146.66A4.79,4.79,0,0,0,205.59,146.66Zm2.22,20.83-17.11-8.61,17.11-9.32Z" transform="translate(-120.47 -137.91)"/><path class="cls-1" d="M155.43,242.65l29.15-13a3.43,3.43,0,0,0,2-3.13v-70L155.43,173Z" transform="translate(-120.47 -137.91)"/><path class="cls-2" d="M120.47,156.45v72.27l31.17,13.93V173Zm13.95,54.65-9-4.61v-5.67l9,4.53Zm0-11.17-9-4.61v-5.67l9,4.53Zm0-11.17-9-4.61v-5.67l9,4.53Zm0-11.17-9-4.61v-5.67l9,4.53Zm12.09,39.71-10.08-5.17v-5.76l10.08,5.08Zm0-11.17L136.43,201V195.2l10.08,5.08Zm0-11.17-10.08-5.17V184l10.08,5.08Zm0-11.17-10.08-5.17v-5.76l10.08,5.08Z" transform="translate(-120.47 -137.91)"/><path class="cls-2" d="M150.54,138.52,122.6,153.15l30.7,16.18,30.23-16.18-27.94-14.62A5.44,5.44,0,0,0,150.54,138.52Zm2.52,25.07-20.54-10.33,20.54-11.19Z" transform="translate(-120.47 -137.91)"/><path class="cls-2" d="M190.29,167.09v6.7l4.36,2.2v4.81l-4.36-2.23v4.18l4.36,2.2v4.81l-4.36-2.23v4.18l4.36,2.2v4.81l-4.36-2.23v4.18l4.36,2.2v4.81l-4.36-2.23v21l15.76,7v-58Zm11.48,44.22-5.45-2.79v-4.82l5.45,2.75Zm0-9-5.45-2.79v-4.82l5.45,2.75Zm0-9-5.45-2.79v-4.82l5.45,2.75Zm0-9-5.45-2.79v-4.82l5.45,2.75Z" transform="translate(-120.47 -137.91)"/><polygon class="cls-3" points="34.95 35.08 63.29 92.08 34.95 104.75 34.95 35.08"/><path class="cls-3" d="M209.58,175.26l23.85,42.67a4,4,0,0,1-1.85,5.58l-22,9.83Z" transform="translate(-120.47 -137.91)"/><path class="cls-4" d="M268.55,179.45a9.37,9.37,0,0,1-1.17-.08,3.23,3.23,0,0,1-1.26-.44,2.86,2.86,0,0,1-1-1.06,3.83,3.83,0,0,1-.41-1.92V159a.58.58,0,0,1,.57-.57h1.44a.58.58,0,0,1,.57.56v16.91a4.6,4.6,0,0,0,0,.55.67.67,0,0,0,.16.38.78.78,0,0,0,.38.21,2.75,2.75,0,0,0,.71.07h7.12q.88,0,1.07-.28a1.67,1.67,0,0,0,.2-.93V159a.58.58,0,0,1,.57-.56H279a.58.58,0,0,1,.57.56v16.88a4.7,4.7,0,0,1,0,.66c0,.2-.06.39-.1.58h1.47a.47.47,0,0,1,.37.16.56.56,0,0,1,.14.39v4.6a.6.6,0,0,1-.14.4.46.46,0,0,1-.37.17h-1.55a.46.46,0,0,1-.37-.17.6.6,0,0,1-.14-.4v-2.83Z" transform="translate(-120.47 -137.91)"/><path class="cls-4" d="M296.55,179.36a.31.31,0,0,1-.21.14,9.46,9.46,0,0,1-1.07.07l-1.46,0-1.57,0h-1.41a7.09,7.09,0,0,1-4.51-1.22,4.9,4.9,0,0,1-1.51-4V163.51a4.9,4.9,0,0,1,1.51-4,7.09,7.09,0,0,1,4.51-1.22q2.06,0,3.34,0t2.18.13a.31.31,0,0,1,.21.14.47.47,0,0,1,.07.25v1.41c0,.23-.1.34-.31.34h-5.46a8.41,8.41,0,0,0-1.81.16,2.18,2.18,0,0,0-1,.51,1.78,1.78,0,0,0-.5.92,6.26,6.26,0,0,0-.13,1.36v3.93h8.68a.55.55,0,0,1,.4.17.53.53,0,0,1,.17.39v1.06a.53.53,0,0,1-.17.39.55.55,0,0,1-.4.17h-8.68v4.77a6.26,6.26,0,0,0,.13,1.38,1.78,1.78,0,0,0,.5.91,2.18,2.18,0,0,0,1,.51,8.38,8.38,0,0,0,1.81.16h5.46c.21,0,.31.11.31.34v1.44A.47.47,0,0,1,296.55,179.36Z" transform="translate(-120.47 -137.91)"/><path class="cls-4" d="M316.44,179.28a.54.54,0,0,1-.4.17H314.6a.58.58,0,0,1-.57-.56v-9.36h-9.67v9.36a.58.58,0,0,1-.57.56h-1.44a.58.58,0,0,1-.57-.57V159a.58.58,0,0,1,.57-.57h1.44a.58.58,0,0,1,.57.57v8.2H314V159a.58.58,0,0,1,.57-.57H316a.58.58,0,0,1,.57.57v19.87A.54.54,0,0,1,316.44,179.28Z" transform="translate(-120.47 -137.91)"/><path class="cls-4" d="M335.38,160.62h-5.51v18.26a.6.6,0,0,1-.14.4.46.46,0,0,1-.37.17H327.8a.46.46,0,0,1-.37-.17.6.6,0,0,1-.14-.4V160.62h-5.51a.7.7,0,0,1-.4-.11.37.37,0,0,1-.17-.33v-1.23a.45.45,0,0,1,.17-.36.6.6,0,0,1,.4-.14h13.6q.54,0,.54.5v1.23Q335.92,160.62,335.38,160.62Z" transform="translate(-120.47 -137.91)"/><path class="cls-4" d="M353.81,164.75a6.7,6.7,0,0,1-.59,3,5.12,5.12,0,0,1-1.65,2,6.92,6.92,0,0,1-2.5,1.07,14.4,14.4,0,0,1-3.17.33q-.68,0-1.47,0t-1.36-.1v7.94a.6.6,0,0,1-.14.4.46.46,0,0,1-.37.17H341a.45.45,0,0,1-.37-.17.6.6,0,0,1-.14-.4v-19.7q0-.62.68-.71.9-.11,2.18-.17t2.52-.06a14.42,14.42,0,0,1,3.17.33,7.24,7.24,0,0,1,2.5,1,5,5,0,0,1,1.65,1.89,6.31,6.31,0,0,1,.59,2.87Zm-2.57-.38a3.44,3.44,0,0,0-1.3-3,7.19,7.19,0,0,0-4-.9l-1.48,0q-.83,0-1.34.08v8.25l.62,0,.76,0,.78,0h.67a6.65,6.65,0,0,0,4.13-1,3.87,3.87,0,0,0,1.22-3.18Z" transform="translate(-120.47 -137.91)"/><path class="cls-4" d="M381.6,179.28a.54.54,0,0,1-.4.17h-1.44a.58.58,0,0,1-.57-.56v-9.36h-9.67v9.36a.58.58,0,0,1-.57.56h-1.44a.58.58,0,0,1-.57-.57V159a.58.58,0,0,1,.57-.57H369a.58.58,0,0,1,.57.57v8.2h9.67V159a.58.58,0,0,1,.57-.57h1.44a.58.58,0,0,1,.57.57v19.87A.54.54,0,0,1,381.6,179.28Z" transform="translate(-120.47 -137.91)"/><path class="cls-4" d="M402.4,170.77a12.7,12.7,0,0,1-.57,4,7.34,7.34,0,0,1-1.59,2.76,6.22,6.22,0,0,1-2.42,1.58,9.53,9.53,0,0,1-6.15,0,6.21,6.21,0,0,1-2.42-1.58,7.48,7.48,0,0,1-1.6-2.76,12.4,12.4,0,0,1-.58-4v-3.65a12.4,12.4,0,0,1,.58-4,7.49,7.49,0,0,1,1.6-2.76,6.21,6.21,0,0,1,2.42-1.58,9.53,9.53,0,0,1,6.15,0,6.22,6.22,0,0,1,2.42,1.58,7.34,7.34,0,0,1,1.59,2.76,12.7,12.7,0,0,1,.57,4Zm-2.63-3.65a11.21,11.21,0,0,0-.35-3,5.58,5.58,0,0,0-1-2,3.72,3.72,0,0,0-1.58-1.15,6.33,6.33,0,0,0-4.17,0,3.83,3.83,0,0,0-1.59,1.15,5.42,5.42,0,0,0-1,2,11.21,11.21,0,0,0-.35,3v3.65a11.21,11.21,0,0,0,.35,3,5.56,5.56,0,0,0,1,2,3.7,3.7,0,0,0,1.59,1.14,6,6,0,0,0,2.1.35,5.83,5.83,0,0,0,2.09-.35,3.71,3.71,0,0,0,1.58-1.14,5.58,5.58,0,0,0,1-2,11.21,11.21,0,0,0,.35-3Z" transform="translate(-120.47 -137.91)"/><path class="cls-4" d="M421.48,173.65a5.87,5.87,0,0,1-.66,2.94,5,5,0,0,1-1.81,1.84,7.85,7.85,0,0,1-2.64.95,17.7,17.7,0,0,1-3.14.27q-1.41,0-2.6-.06a16.76,16.76,0,0,1-2-.2,1.17,1.17,0,0,1-.71-.28,1.06,1.06,0,0,1-.23-.76V159.52a.92.92,0,0,1,.9-1q.71-.08,1.91-.16t2.59-.07a19.16,19.16,0,0,1,3.19.25,8.33,8.33,0,0,1,2.63.88,4.55,4.55,0,0,1,2.46,4.32v.45a4.67,4.67,0,0,1-.79,2.72,4.73,4.73,0,0,1-2.23,1.71,4.5,4.5,0,0,1,2.3,1.73,4.94,4.94,0,0,1,.83,2.86Zm-2.69-9.94a3,3,0,0,0-.41-1.65,2.82,2.82,0,0,0-1.16-1,5.58,5.58,0,0,0-1.79-.49,19.52,19.52,0,0,0-2.34-.13l-1.46,0-1.32.06v7h4.34a6.44,6.44,0,0,0,2-.27,3.3,3.3,0,0,0,1.28-.73,2.48,2.48,0,0,0,.66-1.07,4.44,4.44,0,0,0,.18-1.29Zm.11,9.45a4.67,4.67,0,0,0-.2-1.36,2.74,2.74,0,0,0-.69-1.15,3.52,3.52,0,0,0-1.31-.79,6.07,6.07,0,0,0-2.06-.3h-4.34v7.8l1.45.07q.75,0,1.48,0a14.84,14.84,0,0,0,2.35-.17,5.19,5.19,0,0,0,1.79-.6,2.91,2.91,0,0,0,1.13-1.16,4,4,0,0,0,.39-1.9Z" transform="translate(-120.47 -137.91)"/><path class="cls-4" d="M441.33,170.77a12.7,12.7,0,0,1-.57,4,7.34,7.34,0,0,1-1.59,2.76,6.22,6.22,0,0,1-2.42,1.58,9.53,9.53,0,0,1-6.15,0,6.21,6.21,0,0,1-2.42-1.58,7.48,7.48,0,0,1-1.6-2.76,12.4,12.4,0,0,1-.58-4v-3.65a12.4,12.4,0,0,1,.58-4,7.49,7.49,0,0,1,1.6-2.76,6.21,6.21,0,0,1,2.42-1.58,9.53,9.53,0,0,1,6.15,0,6.22,6.22,0,0,1,2.42,1.58,7.34,7.34,0,0,1,1.59,2.76,12.7,12.7,0,0,1,.57,4Zm-2.63-3.65a11.21,11.21,0,0,0-.35-3,5.58,5.58,0,0,0-1-2,3.72,3.72,0,0,0-1.58-1.15,6.33,6.33,0,0,0-4.17,0,3.83,3.83,0,0,0-1.59,1.15,5.42,5.42,0,0,0-1,2,11.21,11.21,0,0,0-.35,3v3.65a11.21,11.21,0,0,0,.35,3,5.56,5.56,0,0,0,1,2,3.7,3.7,0,0,0,1.59,1.14,6,6,0,0,0,2.1.35,5.83,5.83,0,0,0,2.09-.35,3.71,3.71,0,0,0,1.58-1.14,5.58,5.58,0,0,0,1-2,11.21,11.21,0,0,0,.35-3Z" transform="translate(-120.47 -137.91)"/><path class="cls-4" d="M458.66,179.1a1.09,1.09,0,0,1-.4.18l-.9.16q-.45.07-1,.11l-1.21.07q-.68,0-1.58,0a9.18,9.18,0,0,1-2.63-.4,6,6,0,0,1-2.4-1.4,7.39,7.39,0,0,1-1.75-2.69,11.45,11.45,0,0,1-.68-4.25V167a11.54,11.54,0,0,1,.68-4.28,7.25,7.25,0,0,1,1.75-2.67,6.07,6.07,0,0,1,2.4-1.38,9.16,9.16,0,0,1,2.63-.4,20.74,20.74,0,0,1,2.59.16l2.16.3c.3,0,.45.16.45.37v1.44a.36.36,0,0,1-.08.24c-.06.07-.17.09-.34.07l-.95-.07-1.19-.08-1.31-.07-1.3,0a5.61,5.61,0,0,0-1.94.33,3.8,3.8,0,0,0-1.55,1.07,5.3,5.3,0,0,0-1,2,10.36,10.36,0,0,0-.38,3v3.93a10.25,10.25,0,0,0,.38,3,5.3,5.3,0,0,0,1,2,3.92,3.92,0,0,0,1.55,1.09,5.39,5.39,0,0,0,1.94.34l1.26,0,1.3-.06,1.17-.07.93-.07q.57-.06.57.45v1.16A.45.45,0,0,1,458.66,179.1Z" transform="translate(-120.47 -137.91)"/><path class="cls-4" d="M476.38,160.62h-5.51v18.26a.6.6,0,0,1-.14.4.46.46,0,0,1-.37.17h-1.55a.46.46,0,0,1-.37-.17.6.6,0,0,1-.14-.4V160.62h-5.51a.7.7,0,0,1-.4-.11.37.37,0,0,1-.17-.33v-1.23a.45.45,0,0,1,.17-.36.6.6,0,0,1,.4-.14h13.6q.54,0,.54.5v1.23Q476.92,160.62,476.38,160.62Z" transform="translate(-120.47 -137.91)"/><path class="cls-4" d="M494.81,164.75a6.7,6.7,0,0,1-.59,3,5.12,5.12,0,0,1-1.65,2,6.92,6.92,0,0,1-2.5,1.07,14.4,14.4,0,0,1-3.17.33q-.68,0-1.47,0t-1.36-.1v7.94a.6.6,0,0,1-.14.4.46.46,0,0,1-.37.17H482a.45.45,0,0,1-.37-.17.6.6,0,0,1-.14-.4v-19.7q0-.62.68-.71.9-.11,2.18-.17t2.52-.06a14.42,14.42,0,0,1,3.17.33,7.24,7.24,0,0,1,2.5,1,5,5,0,0,1,1.65,1.89,6.31,6.31,0,0,1,.59,2.87Zm-2.57-.38a3.44,3.44,0,0,0-1.3-3,7.19,7.19,0,0,0-4-.9l-1.48,0q-.83,0-1.34.08v8.25l.62,0,.76,0,.78,0h.67a6.65,6.65,0,0,0,4.13-1,3.87,3.87,0,0,0,1.22-3.18Z" transform="translate(-120.47 -137.91)"/><path class="cls-4" d="M514.37,170.77a12.7,12.7,0,0,1-.57,4,7.34,7.34,0,0,1-1.59,2.76,6.22,6.22,0,0,1-2.42,1.58,9.53,9.53,0,0,1-6.15,0,6.21,6.21,0,0,1-2.42-1.58,7.48,7.48,0,0,1-1.6-2.76,12.4,12.4,0,0,1-.58-4v-3.65a12.4,12.4,0,0,1,.58-4,7.49,7.49,0,0,1,1.6-2.76,6.21,6.21,0,0,1,2.42-1.58,9.53,9.53,0,0,1,6.15,0,6.22,6.22,0,0,1,2.42,1.58,7.34,7.34,0,0,1,1.59,2.76,12.7,12.7,0,0,1,.57,4Zm-2.63-3.65a11.21,11.21,0,0,0-.35-3,5.58,5.58,0,0,0-1-2,3.72,3.72,0,0,0-1.58-1.15,6.33,6.33,0,0,0-4.17,0,3.83,3.83,0,0,0-1.59,1.15,5.42,5.42,0,0,0-1,2,11.21,11.21,0,0,0-.35,3v3.65a11.21,11.21,0,0,0,.35,3,5.56,5.56,0,0,0,1,2,3.7,3.7,0,0,0,1.59,1.14,6,6,0,0,0,2.1.35,5.83,5.83,0,0,0,2.09-.35,3.71,3.71,0,0,0,1.58-1.14,5.58,5.58,0,0,0,1-2,11.21,11.21,0,0,0,.35-3Z" transform="translate(-120.47 -137.91)"/><path class="cls-4" d="M531.41,179.36a.31.31,0,0,1-.21.14,9.46,9.46,0,0,1-1.07.07l-1.46,0-1.57,0h-1.41a7.09,7.09,0,0,1-4.51-1.22,4.9,4.9,0,0,1-1.51-4V163.51a4.9,4.9,0,0,1,1.51-4,7.09,7.09,0,0,1,4.51-1.22q2.06,0,3.34,0t2.18.13a.31.31,0,0,1,.21.14.47.47,0,0,1,.07.25v1.41c0,.23-.1.34-.31.34h-5.46a8.41,8.41,0,0,0-1.81.16,2.18,2.18,0,0,0-1,.51,1.78,1.78,0,0,0-.5.92,6.26,6.26,0,0,0-.13,1.36v3.93h8.68a.55.55,0,0,1,.4.17.53.53,0,0,1,.17.39v1.06a.53.53,0,0,1-.17.39.55.55,0,0,1-.4.17h-8.68v4.77a6.26,6.26,0,0,0,.13,1.38,1.78,1.78,0,0,0,.5.91,2.18,2.18,0,0,0,1,.51,8.38,8.38,0,0,0,1.81.16h5.46c.21,0,.31.11.31.34v1.44A.47.47,0,0,1,531.41,179.36Z" transform="translate(-120.47 -137.91)"/><path class="cls-4" d="M550.36,179.24c0,.14-.13.21-.34.21h-2.21a.81.81,0,0,1-.62-.28l-8-9.7v9.41a.6.6,0,0,1-.14.4.46.46,0,0,1-.37.17h-1.55a.45.45,0,0,1-.37-.17.6.6,0,0,1-.14-.4V159a.53.53,0,0,1,.54-.54h1.5a.53.53,0,0,1,.54.54v9.13l8.14-9.41a1.24,1.24,0,0,1,.24-.2.69.69,0,0,1,.33-.06h2c.23,0,.35.07.38.21a.44.44,0,0,1-.1.38l-8.51,9.61,8.51,10.18A.56.56,0,0,1,550.36,179.24Z" transform="translate(-120.47 -137.91)"/></svg>
